<?xml version="1.0" standalone="yes"?>
<svg xmlns="http://www.w3.org/2000/svg" width="449" height="507">
<path style="fill:#f6ecda; stroke:none;" d="M0 0L0 507L449 507L449 0L0 0z"/>
<path style="fill:#020202; stroke:none;" d="M416 484L416 90L388 90L388 456L134 456C107.32 456 71.2091 462.085 55.7994 434C53.9274 430.588 52.3485 426.811 51.517 423C46.6023 400.473 62.9022 374.04 87 372.093C97.2086 371.269 107.758 372 118 372L178 372L360 372L360 34L142 34L98 34C79.6453 34 63.8285 33.6131 48 44.3588C15.9488 66.1179 22 104.435 22 138L22 378C22 411.195 15.6014 449.618 46 472.239C62.7291 484.688 80.1743 484 100 484L154 484L416 484M360 428L360 400L144 400L106 400C100.366 400 93.4646 398.936 88 400.434C82.2583 402.007 78.2665 408.162 78.3588 414C78.472 421.159 84.1311 426.737 91 427.787C96.8024 428.674 103.139 428 109 428L144 428L360 428z"/>
</svg>
